<svg width="1920" height="1080" viewBox="0 0 1920 1080" xmlns="http://www.w3.org/2000/svg">
  <defs>
    <!-- Gradientes principales -->
    <linearGradient id="heroGradient1" x1="0%" y1="0%" x2="100%" y2="100%">
      <stop offset="0%" style="stop-color:#0EA5E9;stop-opacity:0.9" />
      <stop offset="50%" style="stop-color:#8B5CF6;stop-opacity:0.8" />
      <stop offset="100%" style="stop-color:#EC4899;stop-opacity:0.9" />
    </linearGradient>
    
    <linearGradient id="heroGradient2" x1="0%" y1="0%" x2="100%" y2="100%">
      <stop offset="0%" style="stop-color:#06B6D4;stop-opacity:0.7" />
      <stop offset="100%" style="stop-color:#3B82F6;stop-opacity:0.8" />
    </linearGradient>
    
    <linearGradient id="heroGradient3" x1="0%" y1="0%" x2="100%" y2="100%">
      <stop offset="0%" style="stop-color:#A855F7;stop-opacity:0.6" />
      <stop offset="100%" style="stop-color:#EC4899;stop-opacity:0.7" />
    </linearGradient>
    
    <!-- Patrón de líneas para texturas -->
    <pattern id="heroLines" patternUnits="userSpaceOnUse" width="6" height="6">
      <path d="M 0,6 l 6,-6 M -1.5,1.5 l 3,-3 M 4.5,7.5 l 3,-3" stroke="#ffffff" stroke-width="0.5" opacity="0.2"/>
    </pattern>
    
    <!-- Filtro de desenfoque suave -->
    <filter id="blur" x="-20%" y="-20%" width="140%" height="140%">
      <feGaussianBlur stdDeviation="2"/>
    </filter>
  </defs>
  
  <!-- Fondo base -->
  <rect width="1920" height="1080" fill="#1E293B"/>
  
  <!-- Formas geométricas principales -->
  
  <!-- Forma superior izquierda -->
  <path d="M 0,0 L 600,0 Q 650,50 600,100 L 400,300 Q 350,350 300,300 L 100,100 Q 50,50 100,0 Z" 
        fill="url(#heroGradient1)" 
        transform="rotate(-20 300 150)"/>
  
  <!-- Círculo con textura en la forma superior -->
  <circle cx="300" cy="200" r="60" fill="url(#heroLines)" opacity="0.6"/>
  
  <!-- Forma inferior derecha -->
  <path d="M 1200,600 L 1920,600 L 1920,1080 L 1400,1080 Q 1350,1030 1400,980 L 1600,780 Q 1650,730 1600,680 L 1400,480 Q 1350,430 1400,480 Z" 
        fill="url(#heroGradient1)" 
        transform="rotate(15 1560 760)"/>
  
  <!-- Círculo con textura en la forma inferior -->
  <circle cx="1600" cy="800" r="80" fill="url(#heroLines)" opacity="0.5"/>
  
  <!-- Formas flotantes centrales -->
  <ellipse cx="800" cy="400" rx="150" ry="100" 
           fill="url(#heroGradient2)" 
           transform="rotate(-30 800 400)" 
           opacity="0.7"/>
  
  <ellipse cx="1100" cy="300" rx="120" ry="80" 
           fill="url(#heroGradient3)" 
           transform="rotate(45 1100 300)" 
           opacity="0.6"/>
  
  <!-- Formas geométricas adicionales -->
  <path d="M 200,700 L 500,700 Q 550,750 500,800 L 350,950 Q 300,1000 250,950 L 100,800 Q 50,750 100,700 Z" 
        fill="url(#heroGradient2)" 
        opacity="0.6"/>
  
  <path d="M 1400,200 L 1700,200 Q 1750,250 1700,300 L 1550,450 Q 1500,500 1450,450 L 1300,300 Q 1250,250 1300,200 Z" 
        fill="url(#heroGradient3)" 
        opacity="0.5"/>
  
  <!-- Elementos decorativos - Cruces -->
  <g stroke="#06B6D4" stroke-width="3" opacity="0.4">
    <!-- Cruces lado izquierdo -->
    <line x1="100" y1="500" x2="100" y2="530"/>
    <line x1="85" y1="515" x2="115" y2="515"/>
    
    <line x1="150" y1="550" x2="150" y2="580"/>
    <line x1="135" y1="565" x2="165" y2="565"/>
    
    <line x1="100" y1="600" x2="100" y2="630"/>
    <line x1="85" y1="615" x2="115" y2="615"/>
    
    <!-- Cruces lado derecho -->
    <line x1="1700" y1="500" x2="1700" y2="530"/>
    <line x1="1685" y1="515" x2="1715" y2="515"/>
    
    <line x1="1750" y1="550" x2="1750" y2="580"/>
    <line x1="1735" y1="565" x2="1765" y2="565"/>
    
    <line x1="1700" y1="600" x2="1700" y2="630"/>
    <line x1="1685" y1="615" x2="1715" y2="615"/>
  </g>
  
  <!-- Puntos decorativos -->
  <g fill="#EC4899" opacity="0.3">
    <circle cx="400" cy="600" r="8"/>
    <circle cx="450" cy="650" r="6"/>
    <circle cx="500" cy="600" r="8"/>
    <circle cx="550" cy="650" r="6"/>
    
    <circle cx="1300" cy="400" r="8"/>
    <circle cx="1350" cy="450" r="6"/>
    <circle cx="1400" cy="400" r="8"/>
    <circle cx="1450" cy="450" r="6"/>
  </g>
  
  <!-- Formas geométricas pequeñas -->
  <polygon points="600,200 640,240 600,280 560,240" 
           fill="url(#heroGradient3)" 
           opacity="0.5"/>
  
  <polygon points="1000,600 1040,640 1000,680 960,640" 
           fill="url(#heroGradient2)" 
           opacity="0.4"/>
  
  <!-- Líneas curvas decorativas -->
  <g stroke="url(#heroGradient1)" stroke-width="4" fill="none" opacity="0.3">
    <path d="M 400,500 Q 500,400 600,500"/>
    <path d="M 1200,300 Q 1300,200 1400,300"/>
    <path d="M 700,800 Q 800,700 900,800"/>
  </g>
  
  <!-- Elementos con patrón adicionales -->
  <rect x="500" y="750" width="80" height="80" rx="15" 
        fill="url(#heroLines)" 
        opacity="0.4" 
        transform="rotate(45 540 790)"/>
  
  <rect x="1200" y="150" width="70" height="70" rx="12" 
        fill="url(#heroLines)" 
        opacity="0.5" 
        transform="rotate(-30 1235 185)"/>
  
  <!-- Overlay sutil para suavizar -->
  <rect width="1920" height="1080" fill="url(#heroGradient1)" opacity="0.1"/>
</svg>

